HIERARCHY
ROOT Hips
{
	OFFSET -0.179506 -22.333345 2.821913
	CHANNELS 6 Xposition Yposition Zposition Zrotation Yrotation Xrotation 
	JOINT LeftUpLeg
	{
		OFFSET 6.951974 -9.140623 -0.681533
		CHANNELS 3 Zrotation Yrotation Xrotation
		JOINT LeftLeg
		{
			OFFSET 3.427654 -37.519855 -0.449580
			CHANNELS 3 Zrotation Yrotation Xrotation
			JOINT LeftFoot
			{
				OFFSET -1.359570 -39.796059 -4.369333
				CHANNELS 3 Zrotation Yrotation Xrotation
				JOINT LeftToe
				{
					OFFSET 2.635814 -5.579078 11.928840
					CHANNELS 3 Zrotation Yrotation Xrotation
					End Site
					{
						OFFSET 0.000000 0.000000 0.000000
					}
				}
			}
		}
	}
	JOINT RightUpLeg
	{
		OFFSET -6.767048 -9.052170 -0.431982
		CHANNELS 3 Zrotation Yrotation Xrotation
		JOINT RightLeg
		{
			OFFSET -3.829005 -38.256897 -0.885003
			CHANNELS 3 Zrotation Yrotation Xrotation
			JOINT RightFoot
			{
				OFFSET 1.577377 -39.841461 -4.231180
				CHANNELS 3 Zrotation Yrotation Xrotation
				JOINT RightToe
				{
					OFFSET -2.537174 -4.814398 12.334795
					CHANNELS 3 Zrotation Yrotation Xrotation
					End Site
					{
						OFFSET 0.000000 0.000000 0.000000
					}
				}
			}
		}
	}
	JOINT Spine
	{
		OFFSET -0.253288 10.896323 -2.669631
		CHANNELS 3 Zrotation Yrotation Xrotation
		JOINT Spine1
		{
			OFFSET 0.548704 13.518043 0.109247
			CHANNELS 3 Zrotation Yrotation Xrotation
			JOINT Spine2
			{
				OFFSET 0.145701 5.292222 2.542457
				CHANNELS 3 Zrotation Yrotation Xrotation
				JOINT Neck
				{
					OFFSET -0.277840 21.387037 -4.285703
					CHANNELS 3 Zrotation Yrotation Xrotation
					JOINT Head
					{
						OFFSET 0.515184 6.496960 5.134897
						CHANNELS 3 Zrotation Yrotation Xrotation
						End Site
						{
							OFFSET 0.000000 0.000000 0.000000
						}
					}
				}
				JOINT LeftShoulder
				{
					OFFSET 7.884473 12.174932 -3.408961
					CHANNELS 3 Zrotation Yrotation Xrotation
					JOINT LeftArm
					{
						OFFSET 9.097692 3.046888 -0.886815
						CHANNELS 3 Zrotation Yrotation Xrotation
						JOINT LeftForeArm
						{
							OFFSET 25.961220 -1.277207 -2.745643
							CHANNELS 3 Zrotation Yrotation Xrotation
							JOINT LeftHand
							{
								OFFSET 24.923361 0.898606 -0.117091
								CHANNELS 3 Zrotation Yrotation Xrotation
								End Site
								{
									OFFSET 0.000000 0.000000 0.000000
								}
							}
						}
					}
				}
				JOINT RightShoulder
				{
					OFFSET -8.175920 11.883285 -3.861528
					CHANNELS 3 Zrotation Yrotation Xrotation
					JOINT RightArm
					{
						OFFSET -9.601238 3.255117 -0.914307
						CHANNELS 3 Zrotation Yrotation Xrotation
						JOINT RightForeArm
						{
							OFFSET -25.374195 -1.332924 -2.140099
							CHANNELS 3 Zrotation Yrotation Xrotation
							JOINT RightHand
							{
								OFFSET -25.529810 0.777228 -0.555919
								CHANNELS 3 Zrotation Yrotation Xrotation
								End Site
								{
									OFFSET 0.000000 0.000000 0.000000
								}
							}
						}
					}
				}
			}
		}
	}
}
MOTION
Frames: 9
Frame Time: 0.033333
152.716339 -145.667053 95.319176 47.534451 1.558299 84.935901 7.744183 0.398383 2.243307 -1.521801 -13.244025 9.766021 -2.764343 4.620346 -10.331246 nan nan nan -0.992602 -2.859941 1.542822 -0.402790 2.995121 8.493063 8.131365 -3.386326 -3.194326 nan nan nan -0.643455 3.343102 12.239655 2.646673 -1.150321 2.403840 3.039287 -0.540510 -1.287273 0.046558 -1.666066 -6.401634 0.957128 -4.626713 -10.548085 -25.109089 1.668905 3.657068 -57.639343 -0.221241 8.280522 -0.664885 -13.648760 5.634617 -10.956328 -2.161117 -20.059140 24.409238 3.263880 -3.405380 50.843761 10.745972 13.586191 -10.746206 32.925475 5.441829 11.329189 -1.280846 -0.757917 
152.876892 -145.636597 95.339546 47.590254 1.550928 85.032690 7.645416 0.361081 2.237286 -1.542177 -13.306776 9.685614 -2.590744 4.620601 -10.158526 nan nan nan -1.065936 -2.896523 1.608852 -0.487694 2.940909 8.315856 8.191415 -3.358375 -3.133427 nan nan nan -0.682562 3.312961 12.118079 2.650206 -1.209436 2.305338 2.980997 -0.575780 -1.220053 0.003119 -1.712173 -6.181158 1.084595 -4.795678 -10.714384 -24.989817 1.671507 3.500556 -57.460118 -0.670998 8.566192 -0.929899 -13.940600 6.477561 -11.030955 -1.707767 -19.772051 24.545545 3.142590 -3.499863 50.927556 10.655135 13.732924 -10.288288 31.969810 6.054322 11.386031 -1.792921 -0.545749 
153.066727 -145.594070 95.349953 47.624041 1.503792 84.974726 7.461541 0.398763 2.482736 -1.450014 -13.375196 9.478435 -2.558118 4.651779 -10.207288 nan nan nan -1.240238 -2.995579 1.828144 -0.551379 2.870713 8.168544 8.292646 -3.241088 -3.103035 nan nan nan -0.665407 3.286705 12.020425 2.575358 -1.272003 2.369222 2.909809 -0.606407 -1.208915 0.042967 -1.812043 -5.908727 1.206316 -4.800344 -10.755258 -24.902468 1.451975 3.497380 -57.433275 -1.110163 8.705784 -0.653384 -14.156040 6.506074 -10.795944 -1.551448 -19.550669 24.483903 3.172010 -3.414751 51.186082 10.536682 13.636585 -9.984392 31.023438 5.770681 11.719051 -2.040433 -1.419595 
153.273209 -145.534454 95.362778 47.559052 1.432621 84.943606 7.210778 0.488769 2.754034 -1.301223 -13.436562 9.220261 -2.624030 4.776777 -10.377206 nan nan nan -1.436976 -3.063474 1.971219 -0.619779 2.909765 8.065457 8.462843 -3.113781 -3.058057 nan nan nan -0.591904 3.281852 11.967232 2.438575 -1.264036 2.389363 2.799413 -0.635263 -1.172577 0.137109 -1.897295 -5.882980 1.314084 -4.706177 -10.726377 -25.023471 1.306266 3.391093 -57.227719 -1.456766 8.863774 -0.295972 -14.552635 6.367355 -9.340995 -1.291402 -18.480175 24.475947 3.126457 -3.412864 51.345287 10.339728 13.590860 -9.572989 30.302471 5.522961 11.536568 -2.070342 -2.065845 
153.478836 -145.471481 95.366028 47.421013 1.433781 84.922023 7.044151 0.579491 3.015576 -1.188941 -13.464373 8.965009 -2.583219 4.931571 -10.450588 nan nan nan -1.586734 -3.125176 2.089553 -0.606125 3.067339 7.967453 8.545456 -3.006160 -2.940303 nan nan nan -0.413507 3.269008 11.745759 2.341488 -1.252169 2.645046 2.642030 -0.553655 -1.212718 0.020649 -2.024355 -5.707376 1.436582 -4.602843 -10.815783 -24.999552 1.025099 3.393820 -57.198799 -1.776984 9.032899 0.216311 -15.140111 6.417571 -8.389788 -0.814814 -17.961018 24.404721 3.212022 -3.266572 51.566688 10.133371 13.556388 -9.498251 29.600924 6.052540 11.800534 -2.613906 -1.563228 
153.646027 -145.406891 95.367752 47.327943 1.468192 84.819416 6.979058 0.598032 3.322734 -1.175141 -13.493825 8.740436 -2.579218 5.003768 -10.482716 nan nan nan -1.689347 -3.133081 2.273715 -0.607822 3.070132 7.911149 8.682546 -2.917493 -2.921681 nan nan nan -0.263119 3.235954 11.762335 2.256405 -1.205008 2.690808 2.541781 -0.473479 -1.166719 -0.062776 -2.125411 -5.658292 1.570949 -4.702249 -10.838145 -24.788926 0.758323 3.379968 -57.191071 -2.190039 9.379702 0.484770 -15.718125 6.550380 -7.658023 -1.270757 -18.646114 24.234082 3.333561 -3.148190 51.854571 9.902425 13.608267 -9.107597 28.713370 5.839433 10.939938 -2.292125 -2.284954 
153.774628 -145.332870 95.391586 47.383328 1.453530 84.808182 6.888008 0.423125 3.385391 -1.229088 -13.375416 8.690639 -2.608709 4.958329 -10.498474 nan nan nan -1.809830 -3.110010 2.369108 -0.664767 2.919403 7.838251 8.903943 -2.856564 -2.979201 nan nan nan -0.291394 3.224427 11.828793 2.220330 -1.299297 2.675860 2.569815 -0.418903 -1.263828 -0.191565 -2.215488 -5.549738 1.691772 -4.784972 -10.809110 -24.727450 0.482994 3.386975 -56.998980 -2.554109 9.671672 0.531767 -16.392595 6.723722 -8.142636 -2.069723 -18.774030 24.133974 3.510813 -3.001826 51.917565 9.721869 13.533804 -8.838746 27.854468 5.760516 11.851553 -2.013482 -2.715843 
153.925323 -145.290100 95.393433 47.464477 1.457852 84.884744 6.851923 0.275788 3.339126 -1.341563 -13.230879 8.681410 -2.511725 4.757498 -10.382054 nan nan nan -1.867653 -3.078148 2.423317 -0.742170 2.805437 7.697068 8.977641 -2.769808 -2.977283 nan nan nan -0.339000 3.161839 11.561030 2.231815 -1.416293 2.898356 2.573664 -0.403868 -1.358110 -0.314879 -2.268964 -5.386955 1.767838 -4.743707 -10.851078 -24.814968 0.202872 3.427165 -56.833357 -2.890476 9.796744 0.959439 -17.132630 6.400464 -9.299797 -2.311360 -18.442736 24.197067 3.755240 -2.794597 51.874447 9.615525 13.379302 -8.753148 26.832289 5.671188 13.813262 -2.083953 -2.922625 
154.083664 -145.251923 95.379158 47.487857 1.490072 84.936763 6.778681 0.283000 3.405683 -1.262873 -13.191297 8.519613 -2.379893 4.651303 -10.278696 nan nan nan -1.927663 -3.157618 2.463508 -0.793933 2.676986 7.604443 9.047761 -2.608548 -2.875252 nan nan nan -0.274280 3.091821 11.465141 2.195468 -1.415353 2.869294 2.527264 -0.444146 -1.359457 -0.389823 -2.386023 -5.220233 1.814737 -4.715904 -10.867974 -24.894279 0.073758 3.510900 -56.677769 -3.279305 9.849177 1.475220 -17.944293 6.185677 -9.936489 -2.483742 -18.218888 24.284364 3.812836 -2.673069 51.976123 9.486585 13.269121 -8.634896 25.753807 5.732299 14.577868 -2.115626 -2.689320 
